<svg width="295" height="137" viewBox="0 0 295 137" fill="none" xmlns="http://www.w3.org/2000/svg">
<rect x="2.5" y="2.5" width="290" height="132" rx="22.5" stroke="#E5E5E5" stroke-width="5"/>
<path d="M29.8445 24.2727H38.3778L47.3906 46.2614H47.7741L56.7869 24.2727H65.3203V57H58.6087V35.6985H58.337L49.8675 56.8402H45.2972L36.8278 35.6186H36.5561V57H29.8445V24.2727ZM101.096 40.6364C101.096 44.2053 100.419 47.2415 99.0663 49.745C97.724 52.2486 95.8916 54.1609 93.5692 55.4819C91.2574 56.7923 88.6579 57.4474 85.7709 57.4474C82.8625 57.4474 80.2524 56.7869 77.9406 55.4659C75.6288 54.1449 73.8018 52.2326 72.4594 49.729C71.1171 47.2255 70.4459 44.1946 70.4459 40.6364C70.4459 37.0675 71.1171 34.0312 72.4594 31.5277C73.8018 29.0241 75.6288 27.1172 77.9406 25.8068C80.2524 24.4858 82.8625 23.8253 85.7709 23.8253C88.6579 23.8253 91.2574 24.4858 93.5692 25.8068C95.8916 27.1172 97.724 29.0241 99.0663 31.5277C100.419 34.0312 101.096 37.0675 101.096 40.6364ZM94.0805 40.6364C94.0805 38.3246 93.7343 36.375 93.0418 34.7876C92.36 33.2003 91.3959 31.9964 90.1494 31.1761C88.903 30.3558 87.4434 29.9457 85.7709 29.9457C84.0983 29.9457 82.6388 30.3558 81.3923 31.1761C80.1459 31.9964 79.1764 33.2003 78.4839 34.7876C77.8021 36.375 77.4612 38.3246 77.4612 40.6364C77.4612 42.9482 77.8021 44.8977 78.4839 46.4851C79.1764 48.0724 80.1459 49.2763 81.3923 50.0966C82.6388 50.9169 84.0983 51.3271 85.7709 51.3271C87.4434 51.3271 88.903 50.9169 90.1494 50.0966C91.3959 49.2763 92.36 48.0724 93.0418 46.4851C93.7343 44.8977 94.0805 42.9482 94.0805 40.6364ZM106.221 57V24.2727H119.133C121.616 24.2727 123.73 24.7468 125.477 25.695C127.225 26.6325 128.556 27.9375 129.472 29.6101C130.399 31.272 130.863 33.1896 130.863 35.3629C130.863 37.5362 130.394 39.4538 129.457 41.1158C128.519 42.7777 127.161 44.0721 125.382 44.9989C123.613 45.9258 121.472 46.3892 118.958 46.3892H110.728V40.8441H117.839C119.171 40.8441 120.268 40.6151 121.131 40.157C122.004 39.6882 122.654 39.0437 123.08 38.2234C123.517 37.3924 123.736 36.4389 123.736 35.3629C123.736 34.2763 123.517 33.3281 123.08 32.5185C122.654 31.6982 122.004 31.0643 121.131 30.6168C120.257 30.1587 119.149 29.9297 117.807 29.9297H113.141V57H106.221ZM164.233 35.7305H157.234C157.106 34.8249 156.845 34.0206 156.451 33.3175C156.057 32.6037 155.551 31.9964 154.933 31.4957C154.315 30.995 153.601 30.6115 152.791 30.3452C151.992 30.0788 151.124 29.9457 150.187 29.9457C148.493 29.9457 147.017 30.3665 145.76 31.2081C144.503 32.0391 143.528 33.2536 142.836 34.8516C142.143 36.4389 141.797 38.3672 141.797 40.6364C141.797 42.9695 142.143 44.9297 142.836 46.517C143.539 48.1044 144.519 49.3029 145.776 50.1126C147.033 50.9222 148.487 51.3271 150.139 51.3271C151.066 51.3271 151.923 51.2045 152.712 50.9595C153.511 50.7145 154.219 50.3576 154.837 49.8888C155.455 49.4094 155.966 48.8288 156.371 48.147C156.786 47.4652 157.074 46.6875 157.234 45.8139L164.233 45.8459C164.052 47.348 163.599 48.7969 162.875 50.1925C162.161 51.5774 161.197 52.8185 159.983 53.9158C158.779 55.0025 157.34 55.8654 155.668 56.5046C154.006 57.1332 152.126 57.4474 150.027 57.4474C147.108 57.4474 144.498 56.7869 142.197 55.4659C139.906 54.1449 138.095 52.2326 136.763 49.729C135.442 47.2255 134.782 44.1946 134.782 40.6364C134.782 37.0675 135.453 34.0312 136.795 31.5277C138.138 29.0241 139.959 27.1172 142.261 25.8068C144.562 24.4858 147.15 23.8253 150.027 23.8253C151.923 23.8253 153.681 24.0916 155.3 24.6243C156.93 25.157 158.374 25.9347 159.631 26.9574C160.888 27.9695 161.911 29.2106 162.699 30.6808C163.498 32.1509 164.009 33.8342 164.233 35.7305ZM188.994 57L178.479 43.0494H176.114V57H169.195V24.2727H176.114V37.3445H177.505L188.371 24.2727H196.984L184.216 39.4538L197.576 57H188.994ZM229.284 40.6364C229.284 44.2053 228.608 47.2415 227.255 49.745C225.912 52.2486 224.08 54.1609 221.758 55.4819C219.446 56.7923 216.846 57.4474 213.959 57.4474C211.051 57.4474 208.441 56.7869 206.129 55.4659C203.817 54.1449 201.99 52.2326 200.648 49.729C199.306 47.2255 198.634 44.1946 198.634 40.6364C198.634 37.0675 199.306 34.0312 200.648 31.5277C201.99 29.0241 203.817 27.1172 206.129 25.8068C208.441 24.4858 211.051 23.8253 213.959 23.8253C216.846 23.8253 219.446 24.4858 221.758 25.8068C224.08 27.1172 225.912 29.0241 227.255 31.5277C228.608 34.0312 229.284 37.0675 229.284 40.6364ZM222.269 40.6364C222.269 38.3246 221.923 36.375 221.23 34.7876C220.548 33.2003 219.584 31.9964 218.338 31.1761C217.091 30.3558 215.632 29.9457 213.959 29.9457C212.287 29.9457 210.827 30.3558 209.581 31.1761C208.334 31.9964 207.365 33.2003 206.672 34.7876C205.991 36.375 205.65 38.3246 205.65 40.6364C205.65 42.9482 205.991 44.8977 206.672 46.4851C207.365 48.0724 208.334 49.2763 209.581 50.0966C210.827 50.9169 212.287 51.3271 213.959 51.3271C215.632 51.3271 217.091 50.9169 218.338 50.0966C219.584 49.2763 220.548 48.0724 221.23 46.4851C221.923 44.8977 222.269 42.9482 222.269 40.6364ZM234.41 24.2727H241.313V44.8551H241.585L255.727 24.2727H261.784V57H254.864V36.4016H254.625L240.402 57H234.41V24.2727ZM251.285 15.7074H256.031C256.02 17.6463 255.301 19.207 253.874 20.3896C252.457 21.5721 250.539 22.1634 248.121 22.1634C245.692 22.1634 243.769 21.5721 242.352 20.3896C240.935 19.207 240.227 17.6463 240.227 15.7074H244.941C244.93 16.4425 245.165 17.103 245.644 17.6889C246.134 18.2749 246.96 18.5678 248.121 18.5678C249.25 18.5678 250.06 18.2802 250.55 17.7049C251.04 17.1296 251.285 16.4638 251.285 15.7074Z" fill="white"/>
<path d="M27 108.56V76.4135H83.2508V82.0172H44.9224V88.2959H58.7057C65.4111 88.2959 71.1921 88.7093 76.0487 89.536C80.9329 90.3522 84.6995 91.5086 87.3485 93.005C89.9976 94.5014 91.3221 96.2647 91.3221 98.2948C91.3221 100.314 89.9976 102.099 87.3485 103.647C84.6995 105.186 80.9329 106.389 76.0487 107.258C71.1921 108.126 65.4111 108.56 58.7057 108.56H27ZM44.9224 103.098H58.7057C61.9067 103.098 64.6109 102.878 66.8184 102.439C69.026 101.989 70.6954 101.398 71.8268 100.665C72.9857 99.922 73.5652 99.111 73.5652 98.232C73.5652 96.9553 72.2821 95.8775 69.7158 94.9985C67.1772 94.109 63.5071 93.6642 58.7057 93.6642H44.9224V103.098Z" fill="white"/>
<path d="M180.82 92.487C180.82 95.9926 179.068 98.975 175.564 101.434C172.087 103.893 167.341 105.772 161.325 107.069C155.337 108.356 148.604 109 141.126 109C133.593 109 126.832 108.351 120.844 107.054C114.856 105.756 110.124 103.878 106.647 101.418C103.17 98.9593 101.432 95.9821 101.432 92.487C101.432 88.9814 103.17 85.999 106.647 83.5398C110.124 81.0807 114.856 79.2075 120.844 77.9204C126.832 76.6228 133.593 75.974 141.126 75.974C148.604 75.974 155.337 76.6228 161.325 77.9204C167.341 79.2075 172.087 81.0807 175.564 83.5398C179.068 85.999 180.82 88.9814 180.82 92.487ZM162.65 92.487C162.65 90.2162 161.753 88.3012 159.959 86.742C158.193 85.1827 155.696 84.0003 152.467 83.1945C149.239 82.3887 145.458 81.9858 141.126 81.9858C136.794 81.9858 133.013 82.3887 129.785 83.1945C126.556 84.0003 124.045 85.1827 122.252 86.742C120.486 88.3012 119.603 90.2162 119.603 92.487C119.603 94.7578 120.486 96.6728 122.252 98.232C124.045 99.7912 126.556 100.974 129.785 101.779C133.013 102.585 136.794 102.988 141.126 102.988C145.458 102.988 149.239 102.585 152.467 101.779C155.696 100.974 158.193 99.7912 159.959 98.232C161.753 96.6728 162.65 94.7578 162.65 92.487Z" fill="white"/>
<path d="M194.097 76.4135H211.978V96.6309H212.681L249.313 76.4135H265V108.56H247.078V88.3273H246.457L209.618 108.56H194.097V76.4135ZM237.806 68H250.099C250.072 69.9045 248.209 71.4376 244.511 72.5992C240.841 73.7607 235.874 74.3415 229.61 74.3415C223.319 74.3415 218.338 73.7607 214.668 72.5992C210.998 71.4376 209.163 69.9045 209.163 68H221.374C221.346 68.7221 221.953 69.3709 223.195 69.9464C224.464 70.522 226.603 70.8097 229.61 70.8097C232.535 70.8097 234.633 70.5272 235.902 69.9621C237.171 69.397 237.806 68.743 237.806 68Z" fill="white"/>
</svg>
